<mxfile host="Electron" modified="2024-04-03T06:47:45.444Z" agent="Mozilla/5.0 (Macintosh; Intel Mac OS X 10_15_7) AppleWebKit/537.36 (KHTML, like Gecko) draw.io/24.1.0 Chrome/120.0.6099.109 Electron/28.1.0 Safari/537.36" etag="G_JFIfg1lPvRN-A7a-hV" version="24.1.0" type="device">
  <diagram name="페이지-1" id="pcAfyIQyC8_QPJSV_uBl">
    <mxGraphModel dx="708" dy="1191" grid="1" gridSize="10" guides="1" tooltips="1" connect="1" arrows="1" fold="1" page="1" pageScale="1" pageWidth="827" pageHeight="1169" math="0" shadow="0">
      <root>
        <mxCell id="0" />
        <mxCell id="1" parent="0" />
        <mxCell id="e01blq_VImELG5Nf08z0-1" value="회원" style="shape=umlActor;verticalLabelPosition=bottom;verticalAlign=top;html=1;outlineConnect=0;" vertex="1" parent="1">
          <mxGeometry x="170" y="80" width="30" height="60" as="geometry" />
        </mxCell>
        <mxCell id="e01blq_VImELG5Nf08z0-3" value="비회원" style="shape=umlActor;verticalLabelPosition=bottom;verticalAlign=top;html=1;outlineConnect=0;" vertex="1" parent="1">
          <mxGeometry x="170" y="240" width="30" height="60" as="geometry" />
        </mxCell>
        <mxCell id="e01blq_VImELG5Nf08z0-4" value="구매자" style="shape=umlActor;verticalLabelPosition=bottom;verticalAlign=top;html=1;outlineConnect=0;" vertex="1" parent="1">
          <mxGeometry x="40" y="160" width="30" height="60" as="geometry" />
        </mxCell>
        <mxCell id="e01blq_VImELG5Nf08z0-8" value="actor" style="rounded=0;whiteSpace=wrap;html=1;fillColor=#fa6800;fontColor=#000000;strokeColor=#C73500;" vertex="1" parent="1">
          <mxGeometry x="40" y="360" width="80" height="20" as="geometry" />
        </mxCell>
        <mxCell id="e01blq_VImELG5Nf08z0-9" value="association" style="rounded=0;whiteSpace=wrap;html=1;fillColor=#fa6800;fontColor=#000000;strokeColor=#C73500;" vertex="1" parent="1">
          <mxGeometry x="160" y="40" width="80" height="20" as="geometry" />
        </mxCell>
        <mxCell id="e01blq_VImELG5Nf08z0-11" value="generalization" style="rounded=0;whiteSpace=wrap;html=1;fillColor=#fa6800;fontColor=#000000;strokeColor=#C73500;" vertex="1" parent="1">
          <mxGeometry x="160" y="200" width="80" height="20" as="geometry" />
        </mxCell>
        <mxCell id="e01blq_VImELG5Nf08z0-22" value="" style="group" vertex="1" connectable="0" parent="1">
          <mxGeometry x="320" y="40" width="280" height="390" as="geometry" />
        </mxCell>
        <mxCell id="e01blq_VImELG5Nf08z0-14" value="" style="rounded=0;whiteSpace=wrap;html=1;" vertex="1" parent="e01blq_VImELG5Nf08z0-22">
          <mxGeometry width="280" height="390" as="geometry" />
        </mxCell>
        <mxCell id="e01blq_VImELG5Nf08z0-15" value="상품 보기" style="ellipse;whiteSpace=wrap;html=1;" vertex="1" parent="e01blq_VImELG5Nf08z0-22">
          <mxGeometry x="40" y="40" width="80" height="40" as="geometry" />
        </mxCell>
        <mxCell id="e01blq_VImELG5Nf08z0-16" value="회원관리" style="ellipse;whiteSpace=wrap;html=1;" vertex="1" parent="e01blq_VImELG5Nf08z0-22">
          <mxGeometry x="160" y="70" width="80" height="40" as="geometry" />
        </mxCell>
        <mxCell id="e01blq_VImELG5Nf08z0-17" value="구매" style="ellipse;whiteSpace=wrap;html=1;" vertex="1" parent="e01blq_VImELG5Nf08z0-22">
          <mxGeometry x="40" y="120" width="80" height="40" as="geometry" />
        </mxCell>
        <mxCell id="e01blq_VImELG5Nf08z0-18" value="결제" style="ellipse;whiteSpace=wrap;html=1;" vertex="1" parent="e01blq_VImELG5Nf08z0-22">
          <mxGeometry x="40" y="200" width="80" height="40" as="geometry" />
        </mxCell>
        <mxCell id="e01blq_VImELG5Nf08z0-19" value="회원가입" style="ellipse;whiteSpace=wrap;html=1;" vertex="1" parent="e01blq_VImELG5Nf08z0-22">
          <mxGeometry x="10" y="320" width="80" height="40" as="geometry" />
        </mxCell>
        <mxCell id="e01blq_VImELG5Nf08z0-20" value="주소입력" style="ellipse;whiteSpace=wrap;html=1;" vertex="1" parent="e01blq_VImELG5Nf08z0-22">
          <mxGeometry x="160" y="280" width="80" height="40" as="geometry" />
        </mxCell>
        <mxCell id="e01blq_VImELG5Nf08z0-21" value="온라인 쇼핑" style="text;html=1;align=center;verticalAlign=middle;whiteSpace=wrap;rounded=0;" vertex="1" parent="e01blq_VImELG5Nf08z0-22">
          <mxGeometry x="110" width="60" height="30" as="geometry" />
        </mxCell>
        <mxCell id="e01blq_VImELG5Nf08z0-37" value="" style="endArrow=classic;html=1;rounded=0;entryX=0.5;entryY=1;entryDx=0;entryDy=0;exitX=0.5;exitY=0;exitDx=0;exitDy=0;dashed=1;" edge="1" parent="e01blq_VImELG5Nf08z0-22" source="e01blq_VImELG5Nf08z0-17" target="e01blq_VImELG5Nf08z0-15">
          <mxGeometry width="50" height="50" relative="1" as="geometry">
            <mxPoint x="160" y="140" as="sourcePoint" />
            <mxPoint x="210" y="90" as="targetPoint" />
          </mxGeometry>
        </mxCell>
        <mxCell id="e01blq_VImELG5Nf08z0-38" value="" style="endArrow=classic;html=1;rounded=0;exitX=0.5;exitY=1;exitDx=0;exitDy=0;dashed=1;entryX=0.5;entryY=0;entryDx=0;entryDy=0;" edge="1" parent="e01blq_VImELG5Nf08z0-22" source="e01blq_VImELG5Nf08z0-17" target="e01blq_VImELG5Nf08z0-18">
          <mxGeometry width="50" height="50" relative="1" as="geometry">
            <mxPoint x="90" y="130" as="sourcePoint" />
            <mxPoint x="90" y="90" as="targetPoint" />
          </mxGeometry>
        </mxCell>
        <mxCell id="e01blq_VImELG5Nf08z0-39" value="" style="endArrow=classic;html=1;rounded=0;entryX=1;entryY=0.5;entryDx=0;entryDy=0;exitX=0;exitY=0;exitDx=0;exitDy=0;dashed=1;" edge="1" parent="e01blq_VImELG5Nf08z0-22" source="e01blq_VImELG5Nf08z0-20" target="e01blq_VImELG5Nf08z0-18">
          <mxGeometry width="50" height="50" relative="1" as="geometry">
            <mxPoint x="100" y="140" as="sourcePoint" />
            <mxPoint x="100" y="100" as="targetPoint" />
          </mxGeometry>
        </mxCell>
        <mxCell id="e01blq_VImELG5Nf08z0-40" value="&lt;font style=&quot;font-size: 10px;&quot;&gt;&amp;lt;&amp;lt;include&amp;gt;&amp;gt;&lt;/font&gt;" style="text;html=1;align=center;verticalAlign=middle;whiteSpace=wrap;rounded=0;" vertex="1" parent="e01blq_VImELG5Nf08z0-22">
          <mxGeometry x="20" y="100" width="60" height="10" as="geometry" />
        </mxCell>
        <mxCell id="e01blq_VImELG5Nf08z0-41" value="&lt;font style=&quot;font-size: 10px;&quot;&gt;&amp;lt;&amp;lt;include&amp;gt;&amp;gt;&lt;/font&gt;" style="text;html=1;align=center;verticalAlign=middle;whiteSpace=wrap;rounded=0;" vertex="1" parent="e01blq_VImELG5Nf08z0-22">
          <mxGeometry x="80" y="170" width="60" height="10" as="geometry" />
        </mxCell>
        <mxCell id="e01blq_VImELG5Nf08z0-70" value="&lt;font style=&quot;font-size: 10px;&quot;&gt;&amp;lt;&amp;lt;extend&amp;gt;&amp;gt;&lt;/font&gt;" style="text;html=1;align=center;verticalAlign=middle;whiteSpace=wrap;rounded=0;" vertex="1" parent="e01blq_VImELG5Nf08z0-22">
          <mxGeometry x="100" y="295" width="60" height="10" as="geometry" />
        </mxCell>
        <mxCell id="e01blq_VImELG5Nf08z0-25" value="" style="endArrow=none;html=1;rounded=0;" edge="1" parent="1" source="e01blq_VImELG5Nf08z0-3" target="e01blq_VImELG5Nf08z0-19">
          <mxGeometry width="50" height="50" relative="1" as="geometry">
            <mxPoint x="290" y="130" as="sourcePoint" />
            <mxPoint x="340" y="80" as="targetPoint" />
          </mxGeometry>
        </mxCell>
        <mxCell id="e01blq_VImELG5Nf08z0-26" value="" style="endArrow=none;dashed=1;html=1;dashPattern=1 3;strokeWidth=2;rounded=0;exitX=0.75;exitY=0;exitDx=0;exitDy=0;" edge="1" parent="1" source="e01blq_VImELG5Nf08z0-8">
          <mxGeometry width="50" height="50" relative="1" as="geometry">
            <mxPoint x="250" y="130" as="sourcePoint" />
            <mxPoint x="160" y="310" as="targetPoint" />
          </mxGeometry>
        </mxCell>
        <mxCell id="e01blq_VImELG5Nf08z0-27" value="" style="endArrow=none;dashed=1;html=1;dashPattern=1 3;strokeWidth=2;rounded=0;entryX=0.5;entryY=0;entryDx=0;entryDy=0;" edge="1" parent="1" target="e01blq_VImELG5Nf08z0-8">
          <mxGeometry width="50" height="50" relative="1" as="geometry">
            <mxPoint x="60" y="240" as="sourcePoint" />
            <mxPoint x="300" y="80" as="targetPoint" />
          </mxGeometry>
        </mxCell>
        <mxCell id="e01blq_VImELG5Nf08z0-28" value="" style="shape=flexArrow;endArrow=classic;html=1;rounded=0;" edge="1" parent="1">
          <mxGeometry width="50" height="50" relative="1" as="geometry">
            <mxPoint x="150" y="260" as="sourcePoint" />
            <mxPoint x="80" y="210" as="targetPoint" />
          </mxGeometry>
        </mxCell>
        <mxCell id="e01blq_VImELG5Nf08z0-29" value="" style="endArrow=none;dashed=1;html=1;dashPattern=1 3;strokeWidth=2;rounded=0;entryX=0;entryY=1;entryDx=0;entryDy=0;" edge="1" parent="1" target="e01blq_VImELG5Nf08z0-11">
          <mxGeometry width="50" height="50" relative="1" as="geometry">
            <mxPoint x="100" y="220" as="sourcePoint" />
            <mxPoint x="118.80000000000007" y="222.84000000000003" as="targetPoint" />
          </mxGeometry>
        </mxCell>
        <mxCell id="e01blq_VImELG5Nf08z0-30" value="" style="shape=flexArrow;endArrow=classic;html=1;rounded=0;" edge="1" parent="1">
          <mxGeometry width="50" height="50" relative="1" as="geometry">
            <mxPoint x="150" y="120" as="sourcePoint" />
            <mxPoint x="80" y="180" as="targetPoint" />
          </mxGeometry>
        </mxCell>
        <mxCell id="e01blq_VImELG5Nf08z0-31" value="" style="endArrow=none;dashed=1;html=1;dashPattern=1 3;strokeWidth=2;rounded=0;entryX=0;entryY=0;entryDx=0;entryDy=0;" edge="1" parent="1" target="e01blq_VImELG5Nf08z0-11">
          <mxGeometry width="50" height="50" relative="1" as="geometry">
            <mxPoint x="100" y="170" as="sourcePoint" />
            <mxPoint x="180" y="180" as="targetPoint" />
          </mxGeometry>
        </mxCell>
        <mxCell id="e01blq_VImELG5Nf08z0-32" value="" style="endArrow=none;html=1;rounded=0;entryX=0;entryY=1;entryDx=0;entryDy=0;" edge="1" parent="1" source="e01blq_VImELG5Nf08z0-3" target="e01blq_VImELG5Nf08z0-15">
          <mxGeometry width="50" height="50" relative="1" as="geometry">
            <mxPoint x="200" y="280" as="sourcePoint" />
            <mxPoint x="318" y="373" as="targetPoint" />
          </mxGeometry>
        </mxCell>
        <mxCell id="e01blq_VImELG5Nf08z0-33" value="" style="endArrow=none;html=1;rounded=0;entryX=0;entryY=0;entryDx=0;entryDy=0;" edge="1" parent="1" source="e01blq_VImELG5Nf08z0-1" target="e01blq_VImELG5Nf08z0-17">
          <mxGeometry width="50" height="50" relative="1" as="geometry">
            <mxPoint x="250" y="190" as="sourcePoint" />
            <mxPoint x="300" y="140" as="targetPoint" />
          </mxGeometry>
        </mxCell>
        <mxCell id="e01blq_VImELG5Nf08z0-34" value="" style="endArrow=none;html=1;rounded=0;entryX=0;entryY=0.5;entryDx=0;entryDy=0;" edge="1" parent="1" source="e01blq_VImELG5Nf08z0-1" target="e01blq_VImELG5Nf08z0-15">
          <mxGeometry width="50" height="50" relative="1" as="geometry">
            <mxPoint x="230" y="190" as="sourcePoint" />
            <mxPoint x="280" y="140" as="targetPoint" />
          </mxGeometry>
        </mxCell>
        <mxCell id="e01blq_VImELG5Nf08z0-35" value="" style="endArrow=none;dashed=1;html=1;dashPattern=1 3;strokeWidth=2;rounded=0;entryX=0.75;entryY=1;entryDx=0;entryDy=0;exitX=-0.003;exitY=0.155;exitDx=0;exitDy=0;exitPerimeter=0;" edge="1" parent="1" source="e01blq_VImELG5Nf08z0-14" target="e01blq_VImELG5Nf08z0-9">
          <mxGeometry width="50" height="50" relative="1" as="geometry">
            <mxPoint x="190" y="180" as="sourcePoint" />
            <mxPoint x="240" y="130" as="targetPoint" />
          </mxGeometry>
        </mxCell>
        <mxCell id="e01blq_VImELG5Nf08z0-36" value="" style="endArrow=none;dashed=1;html=1;dashPattern=1 3;strokeWidth=2;rounded=0;entryX=0.75;entryY=1;entryDx=0;entryDy=0;" edge="1" parent="1" target="e01blq_VImELG5Nf08z0-9">
          <mxGeometry width="50" height="50" relative="1" as="geometry">
            <mxPoint x="290" y="140" as="sourcePoint" />
            <mxPoint x="230" y="70" as="targetPoint" />
          </mxGeometry>
        </mxCell>
        <mxCell id="e01blq_VImELG5Nf08z0-71" value="관리자" style="shape=umlActor;verticalLabelPosition=bottom;verticalAlign=top;html=1;outlineConnect=0;" vertex="1" parent="1">
          <mxGeometry x="680" y="80" width="30" height="60" as="geometry" />
        </mxCell>
        <mxCell id="e01blq_VImELG5Nf08z0-72" value="PG" style="shape=umlActor;verticalLabelPosition=bottom;verticalAlign=top;html=1;outlineConnect=0;" vertex="1" parent="1">
          <mxGeometry x="680" y="240" width="30" height="60" as="geometry" />
        </mxCell>
        <mxCell id="e01blq_VImELG5Nf08z0-77" value="" style="endArrow=none;html=1;rounded=0;exitX=1;exitY=0;exitDx=0;exitDy=0;" edge="1" parent="1" source="e01blq_VImELG5Nf08z0-16" target="e01blq_VImELG5Nf08z0-71">
          <mxGeometry width="50" height="50" relative="1" as="geometry">
            <mxPoint x="500" y="150" as="sourcePoint" />
            <mxPoint x="550" y="100" as="targetPoint" />
          </mxGeometry>
        </mxCell>
        <mxCell id="e01blq_VImELG5Nf08z0-78" value="" style="endArrow=none;html=1;rounded=0;exitX=1;exitY=0;exitDx=0;exitDy=0;" edge="1" parent="1" source="e01blq_VImELG5Nf08z0-18" target="e01blq_VImELG5Nf08z0-72">
          <mxGeometry width="50" height="50" relative="1" as="geometry">
            <mxPoint x="500" y="150" as="sourcePoint" />
            <mxPoint x="550" y="100" as="targetPoint" />
          </mxGeometry>
        </mxCell>
        <mxCell id="e01blq_VImELG5Nf08z0-79" value="System Boundary&lt;div&gt;(UseCase Subject)&lt;/div&gt;" style="rounded=0;whiteSpace=wrap;html=1;fillColor=#fa6800;fontColor=#000000;strokeColor=#C73500;" vertex="1" parent="1">
          <mxGeometry x="640" y="360" width="120" height="40" as="geometry" />
        </mxCell>
        <mxCell id="e01blq_VImELG5Nf08z0-80" value="" style="endArrow=none;dashed=1;html=1;dashPattern=1 3;strokeWidth=2;rounded=0;entryX=0.25;entryY=0;entryDx=0;entryDy=0;exitX=1;exitY=0.75;exitDx=0;exitDy=0;" edge="1" parent="1" source="e01blq_VImELG5Nf08z0-14" target="e01blq_VImELG5Nf08z0-79">
          <mxGeometry width="50" height="50" relative="1" as="geometry">
            <mxPoint x="630" y="240" as="sourcePoint" />
            <mxPoint x="680" y="190" as="targetPoint" />
          </mxGeometry>
        </mxCell>
      </root>
    </mxGraphModel>
  </diagram>
</mxfile>
